<svg width="26" height="26" viewBox="0 0 26 26" fill="none" xmlns="http://www.w3.org/2000/svg">
<path d="M26 13C26 20.1797 20.1797 26 13 26C5.8203 26 0 20.1797 0 13C0 5.8203 5.8203 0 13 0C20.1797 0 26 5.8203 26 13ZM1.56 13C1.56 19.3181 6.68186 24.44 13 24.44C19.3181 24.44 24.44 19.3181 24.44 13C24.44 6.68186 19.3181 1.56 13 1.56C6.68186 1.56 1.56 6.68186 1.56 13Z" fill="#ABABAB"/>
<path d="M11.8594 15.4141H13.6797V15.0234C13.6797 14.2578 13.9688 13.8438 14.9922 13.25C16.0547 12.6172 16.6484 11.7812 16.6484 10.5938V10.5859C16.6484 8.85938 15.2109 7.63281 13.0781 7.63281C10.7578 7.63281 9.51562 8.97656 9.42969 10.7266L9.42188 10.8125H11.2578L11.2656 10.7422C11.3359 9.85156 11.9688 9.22656 12.9766 9.22656C13.9531 9.22656 14.6172 9.82031 14.6172 10.6562V10.6641C14.6172 11.4297 14.2891 11.8516 13.3203 12.4375C12.2422 13.0703 11.8047 13.7812 11.8594 14.8672V15.4141ZM12.7969 19.0859C13.4297 19.0859 13.9297 18.6016 13.9297 17.9844C13.9297 17.3594 13.4297 16.8828 12.7969 16.8828C12.1641 16.8828 11.6562 17.3594 11.6562 17.9844C11.6562 18.6016 12.1641 19.0859 12.7969 19.0859Z" fill="#CACCCC"/>
</svg>
