<svg width="28" height="28" viewBox="0 0 28 28" fill="none" xmlns="http://www.w3.org/2000/svg">
<path d="M10.6 27H1.4C1.17909 27 1 26.8209 1 26.6V11.3098C1 11.1846 1.05858 11.0667 1.1583 10.9911L14.0853 1.18806C14.2312 1.07746 14.4335 1.07997 14.5766 1.19417L26.8495 10.991C26.9446 11.0669 27 11.182 27 11.3036V26.6C27 26.8209 26.8209 27 26.6 27H17.4C17.1791 27 17 26.8209 17 26.6V19.4556C17 19.2346 16.8209 19.0556 16.6 19.0556H11.4C11.1791 19.0556 11 19.2346 11 19.4556V26.6C11 26.8209 10.8209 27 10.6 27Z" stroke="#A8ABAB" stroke-width="2"/>
</svg>
