<svg width="17" height="26" viewBox="0 0 17 26" fill="none" xmlns="http://www.w3.org/2000/svg">
<path d="M12.7167 16.2961L12.5309 16.9893C12.055 18.7652 10.4457 20 8.60724 20C6.94873 20 5.45678 18.9917 4.83821 17.4529L4.28566 16.0783C4.16437 15.7766 4.01973 15.4847 3.85306 15.2055L1.78213 11.7358C0.661112 9.85764 0.496324 7.55937 1.33792 5.54047C1.98667 3.98417 3.18248 2.71905 4.69979 1.98373L5.28121 1.70196C7.48795 0.63251 10.0729 0.682268 12.2369 1.83585L12.4238 1.93548C13.8667 2.7047 14.9989 3.94968 15.6281 5.45898C16.4911 7.52914 16.3221 9.88577 15.1726 11.8116L13.2526 15.0284C13.0164 15.4242 12.836 15.8508 12.7167 16.2961Z" fill="#68077B" stroke="#68077B"/>
<rect x="5.34482" y="21" width="6.41379" height="1" rx="0.5" fill="#68077B"/>
<rect x="5.34482" y="23" width="6.41379" height="1" rx="0.5" fill="#68077B"/>
<rect x="6.41379" y="25" width="4.27586" height="1" rx="0.5" fill="#68077B"/>
<path d="M12.5069 10C12.684 10 12.8295 9.85596 12.8093 9.68C12.774 9.37208 12.6878 9.07048 12.5533 8.7861C12.3725 8.40376 12.1082 8.06101 11.7775 7.77983C11.4467 7.49864 11.0568 7.28524 10.6327 7.1533C10.305 7.05134 9.96248 6.99978 9.61844 7C9.45117 7.00011 9.32877 7.14969 9.34581 7.31609C9.36255 7.47953 9.50781 7.5974 9.67208 7.60048C9.92938 7.6053 10.185 7.64633 10.4303 7.72264C10.7696 7.82819 11.0815 7.99891 11.3461 8.22386C11.6107 8.44881 11.8221 8.72301 11.9668 9.02888C12.0651 9.23676 12.1311 9.45616 12.1634 9.6804C12.1885 9.85571 12.3298 10 12.5069 10Z" fill="white"/>
<ellipse cx="9.62069" cy="10" rx="1.06897" ry="1" fill="white"/>
</svg>
