<svg width="28" height="27" viewBox="0 0 28 27" fill="none" xmlns="http://www.w3.org/2000/svg">
<path d="M5.40678 16.3051H2.2C1.53726 16.3051 1 15.7678 1 15.1051V4.40678M17.7458 10.1356V4.40678M1 4.40678V2.08136C1 1.41862 1.53726 0.881356 2.2 0.881356H16.5458C17.2085 0.881356 17.7458 1.41861 17.7458 2.08136V4.40678M1 4.40678H17.7458M3.64407 0V2.64407M14.661 0V2.64407M6.72881 11.4576V24.8C6.72881 25.4627 7.26607 26 7.92881 26H25.8C26.4627 26 27 25.4627 27 24.8V11.4576M6.72881 11.4576H27M6.72881 11.4576L16.1511 18.422C16.575 18.7353 17.1538 18.7353 17.5777 18.422L27 11.4576" stroke="#ABABAB" stroke-width="1.6"/>
</svg>
