<svg width="40" height="40" viewBox="0 0 40 40" fill="none" xmlns="http://www.w3.org/2000/svg">
<path d="M17.3075 9.43457C18.0806 6.72577 21.9194 6.72577 22.6925 9.43456L23.0758 10.7775C23.4904 12.2306 24.9833 13.0925 26.449 12.7251L27.8037 12.3855C30.5361 11.7006 32.4555 15.0252 30.4962 17.0491L29.5248 18.0524C28.4737 19.1381 28.4737 20.8619 29.5248 21.9476L30.4962 22.9509C32.4555 24.9748 30.5361 28.2994 27.8037 27.6145L26.449 27.2749C24.9833 26.9075 23.4904 27.7694 23.0758 29.2225L22.6925 30.5654C21.9194 33.2742 18.0806 33.2742 17.3075 30.5654L16.9242 29.2225C16.5096 27.7694 15.0167 26.9075 13.551 27.2749L12.1963 27.6145C9.46391 28.2994 7.54446 24.9748 9.50382 22.9509L10.4752 21.9476C11.5263 20.8619 11.5263 19.1381 10.4752 18.0524L9.50382 17.0491C7.54446 15.0252 9.4639 11.7006 12.1963 12.3855L13.551 12.7251C15.0167 13.0925 16.5096 12.2306 16.9242 10.7775L17.3075 9.43457Z" fill="#A8ABAB"/>
<circle cx="20" cy="20" r="3" fill="#CACCCC"/>
</svg>
